<svg width="40" height="40" viewBox="0 0 40 40" fill="none" xmlns="http://www.w3.org/2000/svg">
<path d="M35 10.625C35 15.1123 28.2843 18.75 20 18.75C11.7157 18.75 5 15.1123 5 10.625C5 6.13769 11.7157 2.5 20 2.5C28.2843 2.5 35 6.13769 35 10.625Z" fill="#9EFF00"/>
<path d="M20 21.25C24.4753 21.25 28.6509 20.2728 31.7973 18.5685C32.9473 17.9456 34.0413 17.1739 34.9578 16.2612C34.9858 16.4638 35 16.6685 35 16.875C35 21.3623 28.2843 25 20 25C11.7157 25 5 21.3623 5 16.875C5 16.6685 5.01422 16.4638 5.04216 16.2612C5.95871 17.1739 7.0527 17.9456 8.20269 18.5685C11.3491 20.2728 15.5247 21.25 20 21.25Z" fill="#9EFF00"/>
<path d="M20 27.5C24.4753 27.5 28.6509 26.5228 31.7973 24.8185C32.9473 24.1956 34.0413 23.4239 34.9578 22.5112C34.9858 22.7138 35 22.9185 35 23.125C35 27.6123 28.2843 31.25 20 31.25C11.7157 31.25 5 27.6123 5 23.125C5 22.9185 5.01422 22.7138 5.04216 22.5112C5.95871 23.4239 7.0527 24.1956 8.20269 24.8185C11.3491 26.5228 15.5247 27.5 20 27.5Z" fill="#9EFF00"/>
<path d="M20 33.75C24.4753 33.75 28.6509 32.7728 31.7973 31.0685C32.9473 30.4456 34.0413 29.6739 34.9578 28.7612C34.9858 28.9638 35 29.1685 35 29.375C35 33.8623 28.2843 37.5 20 37.5C11.7157 37.5 5 33.8623 5 29.375C5 29.1685 5.01422 28.9638 5.04216 28.7612C5.95871 29.6739 7.0527 30.4456 8.20269 31.0685C11.3491 32.7728 15.5247 33.75 20 33.75Z" fill="#9EFF00"/>
</svg>
