<svg width="40" height="40" viewBox="0 0 40 40" fill="none" xmlns="http://www.w3.org/2000/svg">
<g clip-path="url(#clip0_83_29604)">
<path d="M14.1352 36.1385C14.4365 36.1385 14.6542 35.9207 14.7044 35.6027C15.2401 31.1329 15.4577 31.0156 20.0113 30.279C20.3629 30.212 20.5804 30.0446 20.5804 29.7099C20.5804 29.3918 20.3629 29.1909 20.0783 29.1406C15.4912 28.2702 15.2401 28.2869 14.7044 23.817C14.6542 23.4989 14.4365 23.2813 14.1352 23.2813C13.8171 23.2813 13.5995 23.4989 13.566 23.8003C12.9801 28.337 12.8294 28.4877 8.19211 29.1406C7.90751 29.1742 7.68987 29.3918 7.68987 29.7099C7.68987 30.0279 7.90751 30.212 8.19211 30.279C12.8294 31.1663 12.9633 31.1663 13.566 35.6362C13.5995 35.9207 13.8171 36.1385 14.1352 36.1385ZM6.18317 21.5569C6.41755 21.5569 6.55148 21.3896 6.6017 21.1719C7.1709 17.9912 7.18764 17.7902 10.5526 17.221C10.7702 17.1707 10.9376 17.0369 10.9376 16.8025C10.9376 16.5681 10.7702 16.4174 10.5526 16.384C7.18764 15.798 7.1709 15.5971 6.6017 12.4163C6.55148 12.1987 6.41755 12.048 6.18317 12.048C5.9488 12.048 5.81487 12.1987 5.76465 12.4163C5.19545 15.5971 5.17871 15.798 1.81376 16.384C1.59612 16.4174 1.42871 16.5681 1.42871 16.8025C1.42871 17.0369 1.59612 17.1707 1.81376 17.221C5.17871 17.7902 5.19545 17.9912 5.76465 21.1719C5.81487 21.3896 5.9488 21.5569 6.18317 21.5569ZM15.3573 10.8427C15.5582 10.8427 15.6586 10.7255 15.6921 10.5413C16.2613 7.86276 16.2279 7.76231 19.0403 7.19312C19.2244 7.15964 19.3584 7.04245 19.3584 6.85829C19.3584 6.65741 19.2244 6.54021 19.0403 6.50673C16.2279 5.93753 16.2613 5.83709 15.6921 3.17526C15.6586 2.99111 15.5582 2.85718 15.3573 2.85718C15.1564 2.85718 15.0559 2.99111 15.0225 3.17526C14.4533 5.83709 14.4867 5.93753 11.6743 6.50673C11.4901 6.54021 11.3562 6.65741 11.3562 6.85829C11.3562 7.04245 11.4901 7.15964 11.6743 7.19312C14.4867 7.76231 14.4533 7.86276 15.0225 10.5413C15.0559 10.7255 15.1564 10.8427 15.3573 10.8427ZM29.1854 16.7523C29.4199 16.7523 29.5537 16.6016 29.604 16.384C30.1731 13.2032 30.1899 13.0023 33.5549 12.4163C33.7891 12.3828 33.9399 12.2322 33.9399 11.9978C33.9399 11.7634 33.7891 11.6295 33.5549 11.5793C30.1899 11.0101 30.1731 10.8092 29.604 7.62838C29.5537 7.41075 29.4199 7.24334 29.1854 7.24334C28.951 7.24334 28.8171 7.41075 28.7669 7.62838C28.1977 10.8092 28.181 11.0101 24.816 11.5793C24.5984 11.6295 24.431 11.7634 24.431 11.9978C24.431 12.2322 24.5984 12.3828 24.816 12.4163C28.181 13.0023 28.1977 13.2032 28.7669 16.384C28.8171 16.6016 28.951 16.7523 29.1854 16.7523ZM34.777 35.8706C35.48 36.5905 36.6854 36.5905 37.355 35.8706C38.0414 35.134 38.0414 33.9956 37.355 33.2925L21.4343 17.3215C20.7311 16.6183 19.5259 16.6183 18.8561 17.3215C18.153 18.058 18.1699 19.2132 18.8561 19.9163L34.777 35.8706ZM25.0336 24.3695L20.1284 19.4476C19.8271 19.1462 19.7267 18.8115 20.028 18.5269C20.2791 18.2589 20.6307 18.3259 20.9489 18.644L25.8707 23.5659L25.0336 24.3695Z" fill="#9EFF00"/>
</g>
<defs>
<clipPath id="clip0_83_29604">
<rect width="36.4411" height="33.6329" fill="white" transform="translate(1.42871 2.85718)"/>
</clipPath>
</defs>
</svg>
