<svg width="40" height="40" viewBox="0 0 40 40" fill="none" xmlns="http://www.w3.org/2000/svg">
<path d="M6.56066 4.43934C5.97487 3.85355 5.02513 3.85355 4.43934 4.43934C3.85355 5.02513 3.85355 5.97487 4.43934 6.56066L10.8787 13H5.5C4.67157 13 4 13.6716 4 14.5C4 15.3284 4.67157 16 5.5 16H14.5C15.3284 16 16 15.3284 16 14.5V5.5C16 4.67157 15.3284 4 14.5 4C13.6716 4 13 4.67157 13 5.5V10.8787L6.56066 4.43934Z" fill="#9EFF00"/>
<path d="M27 5.5C27 4.67157 26.3284 4 25.5 4C24.6716 4 24 4.67157 24 5.5V14.5C24 15.3284 24.6716 16 25.5 16H34.5C35.3284 16 36 15.3284 36 14.5C36 13.6716 35.3284 13 34.5 13H29.1213L35.5607 6.56066C36.1464 5.97487 36.1464 5.02513 35.5607 4.43934C34.9749 3.85355 34.0251 3.85355 33.4393 4.43934L27 10.8787V5.5Z" fill="#9EFF00"/>
<path d="M6.56066 35.5607L13 29.1213V34.5C13 35.3284 13.6716 36 14.5 36C15.3284 36 16 35.3284 16 34.5V25.5C16 24.6716 15.3284 24 14.5 24H5.5C4.67157 24 4 24.6716 4 25.5C4 26.3284 4.67157 27 5.5 27H10.8787L4.43934 33.4393C3.85355 34.0251 3.85355 34.9749 4.43934 35.5607C5.02513 36.1464 5.97487 36.1464 6.56066 35.5607Z" fill="#9EFF00"/>
<path d="M27 29.1213L33.4393 35.5607C34.0251 36.1464 34.9749 36.1464 35.5607 35.5607C36.1464 34.9749 36.1464 34.0251 35.5607 33.4393L29.1213 27H34.5C35.3284 27 36 26.3284 36 25.5C36 24.6716 35.3284 24 34.5 24H25.5C24.6716 24 24 24.6716 24 25.5V34.5C24 35.3284 24.6716 36 25.5 36C26.3284 36 27 35.3284 27 34.5V29.1213Z" fill="#9EFF00"/>
</svg>
