<svg width="40" height="40" viewBox="0 0 40 40" fill="none" xmlns="http://www.w3.org/2000/svg">
<path d="M33.5376 23.5155V10.7087C33.5376 8.95085 32.7842 8.38166 31.3612 7.79572C29.3857 6.99215 23.0074 4.56469 21.032 3.9955C20.5799 3.87831 20.0944 3.74438 19.6257 3.74438C19.157 3.74438 18.6715 3.84483 18.2362 3.9955C16.244 4.68188 9.86565 6.97541 7.89021 7.79572C6.48396 8.39841 5.71387 8.95085 5.71387 10.7087V23.5155C5.71387 29.6261 8.97838 31.8861 18.504 37.2265C18.9393 37.461 19.3578 37.5614 19.6257 37.5614C19.8936 37.5614 20.3289 37.461 20.7473 37.2265C30.2563 31.8694 33.5376 29.6261 33.5376 23.5155ZM19.2741 34.4643C19.0732 34.414 18.8556 34.2968 18.5878 34.1294C10.8701 29.4253 8.3757 28.0691 8.3757 22.8961V11.2277C8.3757 10.6585 8.47614 10.4241 8.9449 10.2567C11.5398 9.36938 16.4282 7.59484 18.9561 6.59036C19.09 6.54014 19.1904 6.50666 19.2741 6.48992V34.4643Z" fill="#9EFF00"/>
</svg>
