<svg width="40" height="40" viewBox="0 0 40 40" fill="none" xmlns="http://www.w3.org/2000/svg">
<path d="M1.42871 34.1182C1.42871 34.9218 1.96443 35.4408 2.768 35.4408H36.066C36.8026 35.4408 37.422 34.8548 37.422 34.1015C37.422 33.365 36.8026 32.7622 36.066 32.7622H4.59277C4.24121 32.7622 4.12403 32.6451 4.12403 32.2935V5.82585C4.12403 5.10599 3.52134 4.48657 2.78474 4.48657C2.03139 4.48657 1.42871 5.10599 1.42871 5.82585V34.1182ZM3.18653 23.7054L13.951 17.4776L21.7021 24.1238L35.48 15.9207L34.4254 14.2131L21.8361 21.7131L14.1184 15.1004L3.18653 21.4118V23.7054ZM13.7334 19.7377C15.374 19.7377 16.7133 18.3984 16.7133 16.7578C16.7133 15.1171 15.374 13.7946 13.7334 13.7946C12.0928 13.7946 10.7535 15.1171 10.7535 16.7578C10.7535 18.3984 12.0928 19.7377 13.7334 19.7377ZM21.6351 25.8817C23.2759 25.8817 24.5984 24.5424 24.5984 22.9017C24.5984 21.2611 23.2759 19.9385 21.6351 19.9385C19.9946 19.9385 18.6553 21.2611 18.6553 22.9017C18.6553 24.5424 19.9946 25.8817 21.6351 25.8817ZM34.258 18.2645C35.8986 18.2645 37.2379 16.9252 37.2379 15.2846C37.2379 13.6439 35.8986 12.3047 34.258 12.3047C32.6173 12.3047 31.278 13.6439 31.278 15.2846C31.278 16.9252 32.6173 18.2645 34.258 18.2645Z" fill="#9EFF00"/>
</svg>
