<svg width="149" height="50" viewBox="0 0 149 50" fill="none" xmlns="http://www.w3.org/2000/svg">
<rect width="50.2348" height="50" rx="9.37716" fill="#9EFF00"/>
<path d="M9.15479 15.5938L25.1172 25.0002V42.9579L9.15479 33.8365L9.15479 15.5938Z" fill="#1A1A1A"/>
<path fill-rule="evenodd" clip-rule="evenodd" d="M26.5257 24.9877V40.531L39.6712 33.0192V17.2412L26.5257 24.9877ZM41.0797 33.8366L25.1172 42.958V25.0002L9.15479 15.5938L25.1172 7.04248L41.0797 15.5938V33.8366ZM38.9328 16.0415L25.1172 8.64031L12.0282 15.6523L25.8108 23.7741L38.9328 16.0415Z" fill="#1A1A1A"/>
<path d="M63.839 16.6665C66.3647 16.6665 68.2776 18.0408 68.7604 20.2508L66.2347 20.7708C66.049 19.6008 65.0276 18.8394 63.7833 18.8394C62.5204 18.8394 61.759 19.5451 61.759 20.3808C61.759 21.0122 62.0376 21.4579 63.0033 21.6436L65.6776 22.1822C67.7019 22.6094 68.9462 23.8165 68.9462 25.7479C68.9462 28.1622 66.959 29.6665 64.0062 29.6665C61.4062 29.6665 59.1219 28.4594 58.8062 25.9708L61.4619 25.4322C61.7962 26.8436 62.8362 27.4565 64.2476 27.4565C65.6962 27.4565 66.4576 26.7694 66.4576 25.8779C66.4576 25.1722 66.1233 24.7451 65.009 24.5222L62.3719 24.0208C60.8862 23.7051 59.1033 22.8879 59.1033 20.4551C59.1033 18.2265 60.9233 16.6665 63.839 16.6665Z" fill="white"/>
<path d="M80.4906 20.1208V32.5451H78.0392V28.6636C77.2592 29.2951 76.2378 29.6665 74.9749 29.6665C72.6163 29.6665 70.4249 27.6794 70.4249 24.7636C70.4249 21.8479 72.6163 19.8422 74.9749 19.8422C76.2378 19.8422 77.2592 20.2136 78.0392 20.8636V20.1208H80.4906ZM75.402 27.5308C76.7206 27.5308 78.0392 26.4722 78.0392 24.7636C78.0392 23.0551 76.7206 21.9779 75.402 21.9779C73.9163 21.9779 72.802 23.0551 72.802 24.7636C72.802 26.4722 73.9163 27.5308 75.402 27.5308Z" fill="white"/>
<path d="M91.8325 20.1208V29.3879H89.3811V28.5522C88.6568 29.2765 87.6911 29.6665 86.4654 29.6665C84.2368 29.6665 82.7511 28.0694 82.7511 25.7665V20.1208H85.2025V25.2465C85.2025 26.5465 85.9454 27.4194 87.0783 27.4194C88.4711 27.4194 89.3811 26.4908 89.3811 24.2251V20.1208H91.8325Z" fill="white"/>
<path d="M103.759 20.1208V29.3879H101.308V28.6636C100.528 29.2951 99.5065 29.6665 98.2436 29.6665C95.885 29.6665 93.6936 27.6794 93.6936 24.7636C93.6936 21.8479 95.885 19.8422 98.2436 19.8422C99.5065 19.8422 100.528 20.2136 101.308 20.8636V20.1208H103.759ZM98.6707 27.5308C99.9893 27.5308 101.308 26.4722 101.308 24.7636C101.308 23.0551 99.9893 21.9779 98.6707 21.9779C97.185 21.9779 96.0707 23.0551 96.0707 24.7636C96.0707 26.4722 97.185 27.5308 98.6707 27.5308Z" fill="white"/>
<path d="M112.128 19.9908C112.369 19.9908 112.555 19.9908 112.778 20.0651L112.648 22.4236H112.109C109.843 22.4236 108.803 23.8165 108.803 26.3979V29.3879H106.352V20.1208H108.803V21.8108C109.546 20.7336 110.623 19.9908 112.128 19.9908Z" fill="white"/>
<path d="M122.97 24.5779V25.4136H115.913C116.154 26.7508 117.102 27.5679 118.234 27.5679C118.959 27.5679 119.869 27.4751 120.537 26.3422L122.729 26.8065C121.912 28.7379 120.259 29.6665 118.234 29.6665C115.616 29.6665 113.48 27.6794 113.48 24.7636C113.48 21.8479 115.616 19.8422 118.272 19.8422C120.742 19.8422 122.877 21.7551 122.97 24.5779ZM118.272 21.9779C117.343 21.9779 116.284 22.5351 115.987 23.6865H120.463C120.147 22.4979 119.256 21.9779 118.272 21.9779Z" fill="white"/>
<path d="M135.548 16.9451V23.8165C135.548 27.3079 133.413 29.6665 130.2 29.6665C126.913 29.6665 124.721 27.3079 124.721 23.8165V16.9451H127.247V23.8165C127.247 25.8965 128.417 27.2522 130.2 27.2522C131.89 27.2522 133.023 25.8965 133.023 23.8165V16.9451H135.548Z" fill="white"/>
<path d="M143.551 19.8422C145.91 19.8422 148.102 21.8479 148.102 24.7636C148.102 27.6794 145.91 29.6665 143.551 29.6665C142.289 29.6665 141.267 29.2951 140.487 28.6636V32.5451H138.036V20.1208H140.487V20.8636C141.267 20.2136 142.289 19.8422 143.551 19.8422ZM143.124 27.5308C144.61 27.5308 145.724 26.4722 145.724 24.7636C145.724 23.0551 144.61 21.9779 143.124 21.9779C141.806 21.9779 140.487 23.0551 140.487 24.7636C140.487 26.4722 141.806 27.5308 143.124 27.5308Z" fill="white"/>
</svg>
