<svg width="40" height="40" viewBox="0 0 40 40" fill="none" xmlns="http://www.w3.org/2000/svg">
<path d="M12.2937 26.8917C11.758 26.3393 10.8037 26.3393 10.2345 26.8917L6.78585 30.3237C6.2334 30.8762 6.2334 31.8303 6.76911 32.3829C7.32157 32.9353 8.27581 32.952 8.84501 32.3996L12.2937 28.9509C12.8629 28.3984 12.8629 27.461 12.2937 26.8917ZM9.26354 19.5926C9.26354 18.8059 8.59388 18.1362 7.79031 18.1362H2.88518C2.09835 18.1362 1.42871 18.8059 1.42871 19.5926C1.42871 20.3794 2.09835 21.0492 2.88518 21.0492H7.79031C8.59388 21.0492 9.26354 20.3794 9.26354 19.5926ZM12.1263 12.1429C12.6955 11.5904 12.6955 10.6529 12.1263 10.0837L8.69434 6.63506C8.14188 6.0826 7.20438 6.06586 6.63518 6.61832C6.08273 7.17077 6.08273 8.10827 6.63518 8.67747L10.0671 12.1429C10.6363 12.7121 11.5738 12.7121 12.1263 12.1429ZM19.5927 9.22993C20.3963 9.22993 21.066 8.56029 21.066 7.77346V2.88506C21.066 2.09823 20.3963 1.42859 19.5927 1.42859C18.806 1.42859 18.1363 2.09823 18.1363 2.88506V7.77346C18.1363 8.56029 18.806 9.22993 19.5927 9.22993ZM26.8751 12.3103C27.4443 12.8795 28.3986 12.8795 28.951 12.3103L32.3997 8.86162C32.9689 8.29243 32.9689 7.35493 32.3997 6.78573C31.8473 6.23327 30.9097 6.23327 30.3573 6.78573L26.8751 10.2511C26.3227 10.8203 26.3227 11.7578 26.8751 12.3103ZM29.9556 19.5926C29.9556 20.3794 30.6251 21.0492 31.412 21.0492H36.3004C37.104 21.0492 37.7736 20.3794 37.7736 19.5926C37.7736 18.8059 37.104 18.1362 36.3004 18.1362H31.412C30.6251 18.1362 29.9556 18.8059 29.9556 19.5926ZM18.2703 31.2277C18.2534 31.8806 19.0069 32.0814 19.4421 31.663L21.9867 29.1016L24.8494 36.183C24.9834 36.4844 25.3183 36.6517 25.6196 36.5179L27.2937 35.865C27.595 35.7143 27.7121 35.3627 27.5616 35.0614L24.5481 28.0972L28.1641 27.9464C28.7836 27.913 29.1017 27.3103 28.6497 26.8247L19.4923 17.433C19.0739 16.9977 18.4376 17.2322 18.4209 17.8516L18.2703 31.2277Z" fill="#9EFF00"/>
</svg>
