<svg width="40" height="40" viewBox="0 0 40 40" fill="none" xmlns="http://www.w3.org/2000/svg">
<g clip-path="url(#clip0_77_29555)">
<path d="M22.1465 38.8032C28.7557 38.8032 32.4716 34.661 32.4716 27.5796V24.6556C32.4716 21.9753 31.1924 20.3457 29.7304 20.3457C29.3954 20.3457 29.2279 20.5286 29.2279 20.8331V22.1275C29.2279 22.7519 28.9081 23.0413 28.5425 23.0413C28.1465 23.0413 27.842 22.7519 27.842 22.1275V21.2748C27.842 19.7062 26.8217 18.6706 25.4662 18.6706C24.8419 18.6706 24.5677 18.9295 24.5677 19.4472V21.2138C24.5677 21.8382 24.2633 22.1275 23.8977 22.1275C23.5017 22.1275 23.1819 21.8382 23.1819 21.2138V19.5843C23.1819 17.8177 22.1617 16.9802 20.8367 16.9802C20.258 16.9802 19.9382 17.2543 19.9382 17.7569V21.2138C19.9382 21.8382 19.6336 22.1275 19.2681 22.1275C18.8722 22.1275 18.5524 21.8382 18.5524 21.2138V9.65512C18.5524 8.52818 17.8214 7.79719 16.862 7.79719C15.8416 7.79719 15.1411 8.52818 15.1411 9.65512V26.5744C15.1411 27.0008 14.867 27.214 14.6081 27.214C14.3492 27.214 14.136 27.0617 13.9533 26.6505L11.7146 21.3509C11.3796 20.5742 10.877 20.2392 10.1917 20.2392C9.14093 20.2392 8.47087 20.9549 8.47087 21.823C8.47087 22.1581 8.547 22.4473 8.62316 22.691L11.0902 30.0466C13.1918 36.2599 17.2884 38.8032 22.1465 38.8032ZM9.09525 11.6958C10.4506 11.6958 11.4862 10.6298 11.4862 9.30486C11.4862 7.99516 10.4506 6.92914 9.09525 6.92914C7.80079 6.92914 6.75 7.99516 6.75 9.30486C6.75 10.6298 7.80079 11.6958 9.09525 11.6958ZM16.862 4.76664C18.1869 4.76664 19.2529 3.70062 19.2529 2.3757C19.2529 1.08125 18.1869 0 16.862 0C15.5675 0 14.4863 1.08125 14.4863 2.3757C14.4863 3.70062 15.5675 4.76664 16.862 4.76664ZM24.7048 11.6958C26.0297 11.6958 27.0957 10.6298 27.0957 9.30486C27.0957 7.99516 26.0297 6.92914 24.7048 6.92914C23.3952 6.92914 22.3292 7.99516 22.3292 9.30486C22.3292 10.6298 23.3952 11.6958 24.7048 11.6958ZM31.7101 11.6958C33.0351 11.6958 34.1011 10.6298 34.1011 9.30486C34.1011 7.99516 33.0351 6.92914 31.7101 6.92914C30.4156 6.92914 29.3496 7.99516 29.3496 9.30486C29.3496 10.6298 30.4156 11.6958 31.7101 11.6958ZM31.7101 4.76664C33.0351 4.76664 34.1011 3.70062 34.1011 2.3757C34.1011 1.08125 33.0351 0 31.7101 0C30.4156 0 29.3496 1.08125 29.3496 2.3757C29.3496 3.70062 30.4156 4.76664 31.7101 4.76664Z" fill="#9EFF00"/>
</g>
<defs>
<clipPath id="clip0_77_29555">
<rect width="40" height="40" fill="white"/>
</clipPath>
</defs>
</svg>
