<svg width="40" height="40" viewBox="0 0 40 40" fill="none" xmlns="http://www.w3.org/2000/svg">
<path d="M9.375 6.25C6.95875 6.25 5 8.20875 5 10.625C5 13.0412 6.95875 15 9.375 15H30.625C33.0412 15 35 13.0412 35 10.625C35 8.20875 33.0412 6.25 30.625 6.25H9.375Z" fill="#9EFF00"/>
<path d="M6.25 18.75C5.55964 18.75 5 19.3096 5 20C5 20.6904 5.55964 21.25 6.25 21.25H33.75C34.4404 21.25 35 20.6904 35 20C35 19.3096 34.4404 18.75 33.75 18.75H6.25Z" fill="#9EFF00"/>
<path d="M5 26.25C5 25.5596 5.55964 25 6.25 25H33.75C34.4404 25 35 25.5596 35 26.25C35 26.9404 34.4404 27.5 33.75 27.5H6.25C5.55964 27.5 5 26.9404 5 26.25Z" fill="#9EFF00"/>
<path d="M6.25 31.25C5.55964 31.25 5 31.8096 5 32.5C5 33.1904 5.55964 33.75 6.25 33.75H33.75C34.4404 33.75 35 33.1904 35 32.5C35 31.8096 34.4404 31.25 33.75 31.25H6.25Z" fill="#9EFF00"/>
</svg>
