<svg width="40" height="40" viewBox="0 0 40 40" fill="none" xmlns="http://www.w3.org/2000/svg">
<path d="M4.59849 22.0257C5.56948 22.0257 6.33956 21.2556 6.33956 20.3013C6.33956 19.3303 5.56948 18.5603 4.59849 18.5603C3.62751 18.5603 2.85742 19.3303 2.85742 20.3013C2.85742 21.2556 3.62751 22.0257 4.59849 22.0257ZM8.54939 10.2902C9.52036 10.2902 10.2905 9.50338 10.2905 8.54915C10.2905 7.57816 9.52036 6.80806 8.54939 6.80806C7.59515 6.80806 6.80831 7.57816 6.80831 8.54915C6.80831 9.50338 7.59515 10.2902 8.54939 10.2902ZM20.3184 6.33932C21.2726 6.33932 22.0427 5.56923 22.0427 4.59825C22.0427 3.64401 21.2726 2.85718 20.3184 2.85718C19.3474 2.85718 18.5773 3.64401 18.5773 4.59825C18.5773 5.56923 19.3474 6.33932 20.3184 6.33932ZM32.0706 10.2902C33.0416 10.2902 33.8117 9.50338 33.8117 8.54915C33.8117 7.57816 33.0416 6.80806 32.0706 6.80806C31.0996 6.80806 30.3296 7.57816 30.3296 8.54915C30.3296 9.50338 31.0996 10.2902 32.0706 10.2902ZM36.0383 22.0257C36.9924 22.0257 37.7626 21.2556 37.7626 20.3013C37.7626 19.3303 36.9924 18.5603 36.0383 18.5603C35.0673 18.5603 34.2971 19.3303 34.2971 20.3013C34.2971 21.2556 35.0673 22.0257 36.0383 22.0257ZM33.1756 34.3472C33.9121 34.3472 34.5483 33.7445 34.5483 33.0079C34.5483 32.2545 33.9121 31.635 33.1756 31.635H31.1331V20.5357C31.1331 14.4253 26.4121 9.70428 20.3184 9.70428C14.2079 9.70428 9.52037 14.4253 9.52037 20.5357V31.635H7.44448C6.70786 31.635 6.12194 32.2545 6.12194 33.0079C6.12194 33.7445 6.70786 34.3472 7.44448 34.3472H33.1756ZM21.7246 20.586V31.635H18.9289V20.586C18.9289 19.8159 19.5483 19.1798 20.3184 19.1798C21.0884 19.1798 21.7246 19.8159 21.7246 20.586Z" fill="#9EFF00"/>
</svg>
