<svg width="40" height="40" viewBox="0 0 40 40" fill="none" xmlns="http://www.w3.org/2000/svg">
<g clip-path="url(#clip0_77_29565)">
<path d="M4.30331 31.2533H35.6258C38.3227 31.2533 39.6791 29.9758 39.6791 27.2V9.12566C39.6791 6.36563 38.3227 5.08813 35.6258 5.08813H4.30331C1.60636 5.08813 0.25 6.36563 0.25 9.12566V27.2C0.25 29.9758 1.60636 31.2533 4.30331 31.2533ZM12.0314 36.5999H27.8977C28.5916 36.5999 29.1752 36.0321 29.1752 35.3223C29.1752 34.6126 28.5916 34.0448 27.8977 34.0448H12.0314C11.3374 34.0448 10.7539 34.6126 10.7539 35.3223C10.7539 36.0321 11.3374 36.5999 12.0314 36.5999ZM20.7846 24.708C20.4377 24.708 20.2168 24.503 20.1696 24.1718C19.4757 19.4245 18.8605 18.3679 13.8767 17.8632C13.5455 17.8158 13.3404 17.5792 13.3404 17.2638C13.3404 16.9642 13.5455 16.7118 13.8767 16.6645C18.8447 16.0021 19.2706 15.1347 20.1696 10.3401C20.2484 10.0246 20.4692 9.81962 20.7846 9.81962C21.0844 9.81962 21.3208 10.0404 21.3682 10.3559C22.078 15.0558 22.7245 16.0021 27.6768 16.6645C27.9923 16.7118 28.213 16.9642 28.213 17.2638C28.213 17.5792 27.9923 17.8158 27.6768 17.8632C22.7088 18.5256 22.2672 19.4245 21.3682 24.1876C21.3051 24.503 21.0844 24.708 20.7846 24.708ZM14.3814 27.3735C14.129 27.3735 14.0029 27.2 13.9241 26.9476C13.4508 24.6291 13.6559 24.5188 11.1009 24.1402C10.8328 24.093 10.6908 23.9352 10.6908 23.6829C10.6908 23.462 10.8328 23.2728 11.0693 23.2413C13.6559 22.8155 13.4508 22.705 13.9241 20.4024C14.0029 20.15 14.1448 19.9766 14.3814 19.9766C14.618 19.9766 14.7757 20.1658 14.8387 20.4024C15.2804 22.705 15.1227 22.8155 17.7092 23.2413C17.93 23.2728 18.0877 23.462 18.0877 23.6829C18.0877 23.9037 17.93 24.093 17.7092 24.1402C15.1227 24.5188 15.2804 24.6291 14.8387 26.9949C14.7757 27.2157 14.6022 27.3735 14.3814 27.3735Z" fill="#9EFF00"/>
</g>
<defs>
<clipPath id="clip0_77_29565">
<rect width="40" height="40" fill="white"/>
</clipPath>
</defs>
</svg>
