<svg width="40" height="40" viewBox="0 0 40 40" fill="none" xmlns="http://www.w3.org/2000/svg">
<path d="M26.0483 18.5C26.9888 18.5 27.7025 17.6344 27.3229 16.7739C26.0825 13.9624 23.2704 12 20 12C19.7075 12 19.4187 12.0157 19.1344 12.0463C18.1986 12.147 17.805 13.1981 18.2756 14.0132L20.433 17.75C20.701 18.2141 21.1962 18.5 21.7321 18.5L26.0483 18.5Z" fill="#9EFF00"/>
<path d="M15.679 15.5157C15.2082 14.7004 14.1005 14.5156 13.5439 15.2748C12.5732 16.5988 12 18.2325 12 20C12 21.7676 12.5732 23.4013 13.544 24.7253C14.1006 25.4845 15.2083 25.2997 15.679 24.4844L17.835 20.7501C18.103 20.286 18.103 19.7142 17.835 19.2501L15.679 15.5157Z" fill="#9EFF00"/>
<path d="M18.2757 25.9868C17.8051 26.8019 18.1987 27.8531 19.1345 27.9537C19.4188 27.9843 19.7076 28 20 28C23.2704 28 26.0825 26.0376 27.3229 23.2261C27.7025 22.3656 26.9888 21.5 26.0483 21.5H21.7322C21.1963 21.5 20.7011 21.7859 20.4332 22.25L18.2757 25.9868Z" fill="#9EFF00"/>
<path fill-rule="evenodd" clip-rule="evenodd" d="M28.2591 8.69449L29.5488 6.46055C29.963 5.74312 29.7172 4.82573 28.9998 4.41152C28.2824 3.9973 27.365 4.24312 26.9508 4.96055L25.6623 7.1923C24.3663 6.61853 22.967 6.23568 21.5 6.07942V3.5C21.5 2.67157 20.8284 2 20 2C19.1716 2 18.5 2.67157 18.5 3.5V6.07942C17.033 6.23568 15.6337 6.61854 14.3377 7.19231L13.0492 4.9606C12.635 4.24316 11.7176 3.99735 11.0002 4.41156C10.2828 4.82577 10.037 5.74316 10.4512 6.4606L11.7409 8.6945C10.5757 9.5472 9.54719 10.5757 8.69449 11.7409L6.46017 10.4509C5.74273 10.0367 4.82535 10.2825 4.41113 11C3.99692 11.7174 4.24273 12.6348 4.96017 13.049L7.19231 14.3377C6.61853 15.6337 6.23568 17.033 6.07941 18.5H3.5C2.67157 18.5 2 19.1716 2 20C2 20.8284 2.67157 21.5 3.5 21.5H6.07941C6.23568 22.967 6.61853 24.3663 7.19229 25.6622L4.96017 26.9509C4.24273 27.3651 3.99692 28.2825 4.41113 29C4.82535 29.7174 5.74273 29.9632 6.46017 29.549L8.69447 28.259C9.5471 29.4242 10.5755 30.4526 11.7406 31.3053L10.4508 33.5394C10.0365 34.2568 10.2824 35.1742 10.9998 35.5884C11.7172 36.0027 12.6346 35.7568 13.0488 35.0394L14.3374 32.8075C15.6334 33.3814 17.0329 33.7643 18.5 33.9206V36.5C18.5 37.3284 19.1716 38 20 38C20.8284 38 21.5 37.3284 21.5 36.5V33.9206C22.9671 33.7643 24.3666 33.3814 25.6626 32.8076L26.9512 35.0394C27.3654 35.7569 28.2828 36.0027 29.0002 35.5885C29.7176 35.1743 29.9635 34.2569 29.5492 33.5394L28.2594 31.3053C29.4245 30.4527 30.4528 29.4243 31.3054 28.2592L33.5395 29.549C34.2569 29.9632 35.1743 29.7174 35.5885 29C36.0028 28.2825 35.7569 27.3651 35.0395 26.9509L32.8076 25.6624C33.3814 24.3664 33.7643 22.9671 33.9206 21.5H36.5C37.3284 21.5 38 20.8284 38 20C38 19.1716 37.3284 18.5 36.5 18.5H33.9206C33.7643 17.0329 33.3814 15.6336 32.8076 14.3376L35.0395 13.049C35.7569 12.6348 36.0028 11.7174 35.5885 11C35.1743 10.2825 34.2569 10.0367 33.5395 10.4509L31.3054 11.7408C30.4527 10.5756 29.4243 9.54715 28.2591 8.69449ZM20 9C18.0224 9 16.1667 9.52187 14.5631 10.4354C14.5425 10.4486 14.5216 10.4614 14.5002 10.4737C14.4796 10.4857 14.4587 10.497 14.4378 10.5079C12.8134 11.4618 11.4555 12.8208 10.503 14.4461C10.4935 14.4642 10.4836 14.4821 10.4733 14.5C10.4626 14.5185 10.4516 14.5367 10.4402 14.5547C9.52369 16.1602 9 18.0189 9 20C9 21.9808 9.52358 23.8394 10.4399 25.4448C10.4514 25.4629 10.4625 25.4813 10.4733 25.5C10.4837 25.518 10.4937 25.5361 10.5032 25.5543C11.4564 27.1805 12.8153 28.5401 14.441 29.494C14.4607 29.5043 14.4803 29.515 14.4998 29.5263C14.52 29.5379 14.5398 29.55 14.5593 29.5625C16.1638 30.4773 18.0208 31 20 31C21.9794 31 23.8367 30.4772 25.4414 29.5621C25.4606 29.5498 25.4802 29.5378 25.5002 29.5263C25.5195 29.5152 25.5389 29.5046 25.5584 29.4944C27.1827 28.5414 28.5407 27.1835 29.4938 25.5593C29.5042 25.5394 29.515 25.5196 29.5264 25.5C29.5381 25.4796 29.5503 25.4596 29.5628 25.44C30.4775 23.8357 31 21.9789 31 20C31 18.0209 30.4774 16.1639 29.5626 14.5595C29.5501 14.54 29.538 14.5202 29.5264 14.5C29.5151 14.4805 29.5044 14.4609 29.4941 14.4411C28.5416 12.8178 27.1846 11.4605 25.5616 10.5075C25.5408 10.4968 25.5202 10.4855 25.4998 10.4737C25.4786 10.4615 25.4579 10.4488 25.4376 10.4358C23.8338 9.522 21.9779 9 20 9Z" fill="#9EFF00"/>
</svg>
