<svg width="40" height="40" viewBox="0 0 40 40" fill="none" xmlns="http://www.w3.org/2000/svg">
<path d="M10 5C7.23858 5 5 7.23858 5 10V13.75C5 16.5114 7.23858 18.75 10 18.75H13.75C16.5114 18.75 18.75 16.5114 18.75 13.75V10C18.75 7.23858 16.5114 5 13.75 5H10Z" fill="#9EFF00"/>
<path d="M26.25 5C23.4886 5 21.25 7.23858 21.25 10V13.75C21.25 16.5114 23.4886 18.75 26.25 18.75H30C32.7614 18.75 35 16.5114 35 13.75V10C35 7.23858 32.7614 5 30 5H26.25Z" fill="#9EFF00"/>
<path d="M10 21.25C7.23858 21.25 5 23.4886 5 26.25V30C5 32.7614 7.23858 35 10 35H13.75C16.5114 35 18.75 32.7614 18.75 30V26.25C18.75 23.4886 16.5114 21.25 13.75 21.25H10Z" fill="#9EFF00"/>
<path d="M29.375 22.5C29.375 21.8096 28.8154 21.25 28.125 21.25C27.4346 21.25 26.875 21.8096 26.875 22.5V26.875H22.5C21.8096 26.875 21.25 27.4346 21.25 28.125C21.25 28.8154 21.8096 29.375 22.5 29.375H26.875V33.75C26.875 34.4404 27.4346 35 28.125 35C28.8154 35 29.375 34.4404 29.375 33.75V29.375H33.75C34.4404 29.375 35 28.8154 35 28.125C35 27.4346 34.4404 26.875 33.75 26.875H29.375V22.5Z" fill="#9EFF00"/>
</svg>
