<svg width="40" height="40" viewBox="0 0 40 40" fill="none" xmlns="http://www.w3.org/2000/svg">
<path fill-rule="evenodd" clip-rule="evenodd" d="M3.75 10C3.75 7.23858 5.98858 5 8.75 5H31.25C34.0114 5 36.25 7.23858 36.25 10V30C36.25 32.7614 34.0114 35 31.25 35H8.75C5.98858 35 3.75 32.7614 3.75 30V10ZM10.3661 11.6161C10.8543 11.128 11.6457 11.128 12.1339 11.6161L15.8839 15.3661C16.372 15.8543 16.372 16.6457 15.8839 17.1339L12.1339 20.8839C11.6457 21.372 10.8543 21.372 10.3661 20.8839C9.87796 20.3957 9.87796 19.6043 10.3661 19.1161L13.2322 16.25L10.3661 13.3839C9.87796 12.8957 9.87796 12.1043 10.3661 11.6161ZM17.5 18.75C16.8096 18.75 16.25 19.3096 16.25 20C16.25 20.6904 16.8096 21.25 17.5 21.25H22.5C23.1904 21.25 23.75 20.6904 23.75 20C23.75 19.3096 23.1904 18.75 22.5 18.75H17.5Z" fill="#9EFF00"/>
</svg>
