<svg width="40" height="40" viewBox="0 0 40 40" fill="none" xmlns="http://www.w3.org/2000/svg">
<path d="M25.0905 34.4432H35.0463C37.2363 34.4432 38.7008 33.0458 38.7008 30.9499V9.49326C38.7008 7.3973 37.2363 6 35.0463 6H25.0905C22.9005 6 21.4226 7.3973 21.4226 9.49326V30.9499C21.4226 33.0458 22.9005 34.4432 25.0905 34.4432ZM25.3592 32.2801C24.2307 32.2801 23.5858 31.6754 23.5858 30.6005V9.84258C23.5858 8.76773 24.2307 8.16313 25.3592 8.16313H34.7642C35.8928 8.16313 36.5376 8.76773 36.5376 9.84258V30.6005C36.5376 31.6754 35.8928 32.2801 34.7642 32.2801H25.3592ZM3.44577 31.2455C4.14442 31.2455 4.64154 30.7619 4.64154 30.0632V28.0209C4.64154 23.023 7.69141 21.4106 11.6012 21.4106H12.4879L16.2096 21.2897V20.5373L12.5551 23.8693L11.0772 25.1323C10.7682 25.3876 10.6876 25.7234 10.6876 26.0459C10.6876 26.7043 11.1981 27.2014 11.8565 27.2014C12.1789 27.2014 12.4611 27.0804 12.7566 26.7983L18.4399 21.1285C18.7086 20.8733 18.8564 20.5642 18.8564 20.2283C18.8564 19.8924 18.7086 19.5834 18.4399 19.3281L12.7298 13.6314C12.4611 13.3627 12.1789 13.2552 11.8565 13.2552C11.1981 13.2552 10.6876 13.7389 10.6876 14.4107C10.6876 14.7331 10.7682 15.069 11.0772 15.3243L12.5551 16.5873L16.2096 19.9193V19.1669L12.4879 19.046H11.6012C6.83153 19.046 2.25 21.236 2.25 28.0209V30.0632C2.25 30.7619 2.74712 31.2455 3.44577 31.2455Z" fill="#9EFF00"/>
</svg>
